:SAMPLES-PER-SECOND 30
:FULLY-SPECIFIED
:DEGREES
31
root  -5.11414 40.9421 0.384682 -1.58705 -89.478 1.62902
RightUpLeg  3.53258 -2.17174 -2.2195
RightLeg  -2.38002 -24.8439 1.27152
RightFoot  0.241327 -0.362398 3.5594
RightToes  -3.11842e-008 1.75238e-005 3.56266e-009
Spine  -1.74542 -0.34986 -0.304173
Spine1  4.40253 -0.201249 -0.664872
HEad  -6.05946 -0.611394 2.59592
LeftShoulder1  0.735527 -0.794761 -9.75221
LeftArm  -48.3006 1.59207 -17.774
LeftForeArm  59.1987 3.94644 6.87618
LeftHand  -0.209895 0.346986 4.85366
RightShoulder  1.18261 2.39882 13.089
RightArm  -42.5603 -5.08816 16.4136
RightForeArm  22.4451 4.86307 0.0974862
RightHand  0.127253 2.55037 1.67041
LeftUpLeg  3.63162 1.04555 2.23973
LeftLeg  -2.65581 17.2428 -0.863067
LeftFoot  0.107118 0.235512 -2.37353
LeftToes  4.78904e-008 1.4679e-008 1.35657e-009
32
root  -5.1193 40.9425 0.38208 1.73211 -89.4777 -1.58088
RightUpLeg  3.47309 -2.15879 -2.19126
RightLeg  -2.49123 -24.8754 1.35057
RightFoot  0.274972 -0.361659 3.54793
RightToes  -3.11842e-008 1.75238e-005 3.56266e-009
Spine  -1.63123 -0.300279 -0.750562
Spine1  4.28193 -0.275364 -0.00119503
HEad  -7.37873 -0.521559 2.32798
LeftShoulder1  0.806039 -1.03581 -10.5025
LeftArm  -47.7115 4.38391 -22.4269
LeftForeArm  58.476 2.65395 6.344
LeftHand  -0.265178 0.898213 6.82566
RightShoulder  1.3245 2.72646 14.4373
RightArm  -42.1032 -7.08733 18.6327
RightForeArm  22.7099 7.67438 0.783798
RightHand  0.0592738 2.70737 0.603742
LeftUpLeg  3.50873 1.01127 2.25023
LeftLeg  -2.6334 17.2789 -0.817042
LeftFoot  0.0992968 0.236661 -2.39141
LeftToes  4.78904e-008 1.4679e-008 1.35657e-009
33
root  -5.13395 40.9428 0.384844 4.3649 -89.562 -4.11291
RightUpLeg  3.43447 -2.1128 -2.16058
RightLeg  -2.6276 -24.8467 1.38817
RightFoot  0.344074 -0.356529 3.46832
RightToes  -3.11842e-008 1.75238e-005 3.56266e-009
Spine  -1.66656 -0.298566 -1.19802
Spine1  4.5595 -0.405657 0.701384
HEad  -8.65861 0.0424064 1.59444
LeftShoulder1  0.891837 -1.1871 -11.798
LeftArm  -45.4711 8.06778 -26.8723
LeftForeArm  56.2212 -2.08771 3.59279
LeftHand  -0.413814 0.861471 10.4245
RightShoulder  1.46954 3.0554 15.7017
RightArm  -40.6841 -9.54426 21.4596
RightForeArm  24.986 11.5626 2.01461
RightHand  -0.106658 2.6501 -1.70506
LeftUpLeg  3.47358 0.998565 2.25474
LeftLeg  -2.72196 17.3834 -0.840959
LeftFoot  0.127189 0.238704 -2.42318
LeftToes  4.78904e-008 1.4679e-008 1.35657e-009
34
root  -5.15535 40.9431 0.386935 9.55778 -89.619 -9.09567
RightUpLeg  3.30364 -2.04888 -2.11202
RightLeg  -2.80103 -24.8547 1.46051
RightFoot  0.41128 -0.352901 3.41203
RightToes  -3.11842e-008 1.75238e-005 3.56266e-009
Spine  -1.18912 -0.289887 -1.27502
Spine1  3.90189 -0.451138 0.958698
HEad  -9.75025 0.679602 1.17209
LeftShoulder1  1.13962 -1.9767 -13.9028
LeftArm  -41.4976 12.491 -29.6168
LeftForeArm  56.18 -5.7512 0.0296266
LeftHand  -0.667106 0.107421 14.7826
RightShoulder  1.52206 3.0394 16.6455
RightArm  -37.2883 -12.7106 25.0867
RightForeArm  26.8481 16.2101 3.32605
RightHand  -0.234839 4.5927 -3.04387
LeftUpLeg  3.2842 0.99533 2.2895
LeftLeg  -2.71952 17.4448 -0.845467
LeftFoot  0.108574 0.240404 -2.44388
LeftToes  4.78904e-008 1.4679e-008 1.35657e-009
35
root  -5.18886 40.9432 0.394561 21.858 -89.6445 -21.2565
RightUpLeg  3.28238 -2.01783 -2.08132
RightLeg  -2.97514 -24.8595 1.55215
RightFoot  0.421266 -0.357088 3.477
RightToes  -3.11842e-008 1.75238e-005 3.56266e-009
Spine  -1.03889 -0.375174 -1.36203
Spine1  3.93762 -0.576532 1.12729
HEad  -11.0225 0.839058 0.807934
LeftShoulder1  1.16016 -1.65565 -15.6479
LeftArm  -36.6929 15.9206 -33.1906
LeftForeArm  58.5129 -10.0427 -3.11899
LeftHand  -0.768038 -0.0363069 16.4514
RightShoulder  1.51021 2.74076 17.6526
RightArm  -32.5207 -14.9739 29.2585
RightForeArm  26.6042 20.2097 3.64118
RightHand  -0.307544 4.61566 -3.84349
LeftUpLeg  3.19809 1.02391 2.32886
LeftLeg  -2.72538 17.4573 -0.863306
LeftFoot  0.0674689 0.236803 -2.38122
LeftToes  4.78904e-008 1.4679e-008 1.35657e-009
36
root  -5.22181 40.9433 0.404087 71.5758 -89.8991 -70.8562
RightUpLeg  3.15204 -1.97896 -2.10464
RightLeg  -2.949 -24.598 1.49772
RightFoot  0.431675 -0.356492 3.46775
RightToes  -3.11842e-008 1.75238e-005 3.56266e-009
Spine  -1.59862 -0.474552 -1.10022
Spine1  4.8973 -0.582546 0.606961
HEad  -12.2255 1.15601 0.994671
LeftShoulder1  1.37942 -2.19671 -17.5825
LeftArm  -28.7195 19.9184 -35.9697
LeftForeArm  58.2432 -15.589 -4.7287
LeftHand  -0.764849 -1.32579 13.5953
RightShoulder  1.65926 2.99249 19.0887
RightArm  -27.5118 -17.0431 33.1451
RightForeArm  27.0134 23.3153 3.61013
RightHand  -0.366215 6.12879 -4.04867
LeftUpLeg  3.23824 1.00714 2.28728
LeftLeg  -2.88456 17.784 -0.935833
LeftFoot  0.0874326 0.236903 -2.37818
LeftToes  4.78904e-008 1.4679e-008 1.35657e-009
37
root  -5.25893 40.9432 0.406497 150.227 -89.8444 -149.399
RightUpLeg  3.10041 -1.94122 -2.09536
RightLeg  -3.00873 -24.4897 1.49767
RightFoot  0.420371 -0.356162 3.46263
RightToes  -3.11842e-008 1.75238e-005 3.56266e-009
Spine  -1.8736 -0.805811 -0.702227
Spine1  5.1597 -0.776372 -0.146596
HEad  -13.0435 1.73813 1.38151
LeftShoulder1  1.46736 -2.24511 -18.9829
LeftArm  -18.1409 23.2045 -38.767
LeftForeArm  54.8217 -20.9162 -3.53132
LeftHand  -0.780914 -4.21521 9.61452
RightShoulder  1.97523 3.81988 20.6691
RightArm  -23.8295 -18.7876 36.3373
RightForeArm  29.0992 24.7522 3.75797
RightHand  -0.301674 7.54413 -3.05103
LeftUpLeg  3.23215 0.979559 2.26595
LeftLeg  -2.9425 17.9725 -0.942964
LeftFoot  0.0520217 0.24037 -2.42895
LeftToes  4.78904e-008 1.4679e-008 1.35657e-009
38
root  -5.29138 40.9431 0.39337 159.732 -89.7546 -158.913
RightUpLeg  3.11002 -1.93083 -2.07543
RightLeg  -2.91871 -24.3943 1.44075
RightFoot  0.356935 -0.353623 3.42322
RightToes  -3.11842e-008 1.75238e-005 3.56266e-009
Spine  -1.65209 -0.786167 -0.333141
Spine1  5.10188 -0.610775 -0.868016
HEad  -13.2329 1.43913 1.78562
LeftShoulder1  1.66857 -2.82577 -19.8922
LeftArm  -11.8943 26.0728 -41.6294
LeftForeArm  51.2351 -25.2938 -2.65941
LeftHand  -0.622648 -4.58142 7.52628
RightShoulder  2.07762 3.87061 21.9397
RightArm  -21.0469 -20.5183 39.8239
RightForeArm  30.7681 26.1732 3.97882
RightHand  -0.178897 6.99276 -2.02777
LeftUpLeg  3.34996 0.991659 2.27557
LeftLeg  -3.04031 18.0549 -0.971892
LeftFoot  0.0454705 0.241653 -2.44664
LeftToes  4.78904e-008 1.4679e-008 1.35657e-009
